<svg width="86" height="15" viewBox="0 0 86 15" fill="none" xmlns="http://www.w3.org/2000/svg">
<path d="M3.98047 3.52344C4.03906 3.42969 4.07422 3.34766 4.08594 3.27734C4.09766 3.19531 4.13281 3.10742 4.19141 3.01367C4.42578 2.88477 4.63672 2.73242 4.82422 2.55664C5.01172 2.36914 5.22852 2.2168 5.47461 2.09961C5.63867 1.98242 5.76758 1.90625 5.86133 1.87109C5.9668 1.82422 6.06641 1.76562 6.16016 1.69531C6.26562 1.64844 6.36523 1.60156 6.45898 1.55469C6.56445 1.50781 6.68164 1.4668 6.81055 1.43164C6.9043 1.4082 6.98633 1.37891 7.05664 1.34375C7.12695 1.29688 7.19727 1.26172 7.26758 1.23828C7.43164 1.17969 7.5957 1.12695 7.75977 1.08008C7.92383 1.0332 8.08203 0.986328 8.23438 0.939453C8.29297 0.916016 8.36328 0.886719 8.44531 0.851562C8.52734 0.816406 8.60352 0.804688 8.67383 0.816406C8.80273 0.839844 8.87891 0.845703 8.90234 0.833984C8.9375 0.822266 8.9668 0.816406 8.99023 0.816406C9.08398 0.804688 9.16016 0.816406 9.21875 0.851562C9.28906 0.886719 9.36523 0.916016 9.44727 0.939453C9.51758 0.962891 9.58203 0.980469 9.64062 0.992188C9.71094 1.00391 9.77539 1.02148 9.83398 1.04492C9.89258 1.06836 9.93945 1.10352 9.97461 1.15039C10.0215 1.18555 10.0625 1.2207 10.0977 1.25586C10.1445 1.2793 10.1855 1.30859 10.2207 1.34375C10.2676 1.37891 10.3145 1.41406 10.3613 1.44922C10.4551 1.64844 10.5605 1.84766 10.6777 2.04688C10.7949 2.24609 10.8535 2.48633 10.8535 2.76758C10.7832 2.87305 10.7422 2.92578 10.7305 2.92578C10.7188 2.92578 10.707 2.9375 10.6953 2.96094C10.5664 3.04297 10.4727 3.11914 10.4141 3.18945C10.3555 3.24805 10.291 3.3125 10.2207 3.38281L9.97461 3.62891C9.93945 3.65234 9.89844 3.67578 9.85156 3.69922C9.80469 3.71094 9.77539 3.74609 9.76367 3.80469C9.66992 3.85156 9.59375 3.91016 9.53516 3.98047C9.47656 4.05078 9.40039 4.10352 9.30664 4.13867C9.20117 4.26758 9.07227 4.37305 8.91992 4.45508C8.76758 4.52539 8.62695 4.60742 8.49805 4.70117C8.36914 4.7832 8.28125 4.83594 8.23438 4.85938C8.19922 4.88281 8.16406 4.91211 8.12891 4.94727C8 5.00586 7.88281 5.06445 7.77734 5.12305C7.68359 5.18164 7.57227 5.23438 7.44336 5.28125C7.38477 5.30469 7.32617 5.33398 7.26758 5.36914C7.2207 5.4043 7.15625 5.41602 7.07422 5.4043C7.01562 5.38086 6.95703 5.35742 6.89844 5.33398C6.83984 5.29883 6.78711 5.32227 6.74023 5.4043C6.58789 5.42773 6.44141 5.4043 6.30078 5.33398C6.17188 5.25195 6.10156 5.14062 6.08984 5C5.94922 4.88281 5.9082 4.72461 5.9668 4.52539C5.99023 4.43164 6.03125 4.33789 6.08984 4.24414C6.16016 4.15039 6.21875 4.0625 6.26562 3.98047C6.32422 3.875 6.37695 3.77539 6.42383 3.68164C6.4707 3.57617 6.52344 3.47656 6.58203 3.38281C6.74609 3.20703 6.91016 3.04297 7.07422 2.89062C7.25 2.73828 7.4668 2.63281 7.72461 2.57422C7.80664 2.55078 7.88867 2.52734 7.9707 2.50391C8.05273 2.48047 8.12891 2.45703 8.19922 2.43359C8.23438 2.45703 8.26953 2.45703 8.30469 2.43359C8.33984 2.41016 8.375 2.41016 8.41016 2.43359C8.45703 2.46875 8.47461 2.50977 8.46289 2.55664C8.45117 2.60352 8.44531 2.65625 8.44531 2.71484C8.41016 2.76172 8.36328 2.79687 8.30469 2.82031C8.24609 2.83203 8.1875 2.84961 8.12891 2.87305C8.08203 2.88477 8.03516 2.9082 7.98828 2.94336C7.94141 2.9668 7.91211 3.01367 7.90039 3.08398C7.57227 3.36523 7.2793 3.7168 7.02148 4.13867C7.05664 4.16211 7.10352 4.19141 7.16211 4.22656C7.2207 4.26172 7.2793 4.28516 7.33789 4.29688C7.43164 4.32031 7.53711 4.29688 7.6543 4.22656C7.7832 4.15625 7.88281 4.10352 7.95312 4.06836C8.28125 3.91602 8.57422 3.71094 8.83203 3.45312C8.90234 3.39453 8.97266 3.33008 9.04297 3.25977C9.125 3.18945 9.18359 3.11914 9.21875 3.04883C9.26562 2.99023 9.30664 2.93164 9.3418 2.87305C9.37695 2.81445 9.42383 2.76758 9.48242 2.73242C9.49414 2.62695 9.47656 2.54492 9.42969 2.48633C9.39453 2.41602 9.34766 2.35156 9.28906 2.29297C9.24219 2.22266 9.18945 2.1582 9.13086 2.09961C9.07227 2.04102 9.03125 1.9707 9.00781 1.88867C8.94922 1.86523 8.89648 1.82422 8.84961 1.76562C8.81445 1.70703 8.76758 1.66602 8.70898 1.64258C8.68555 1.64258 8.63281 1.63672 8.55078 1.625C8.48047 1.61328 8.43945 1.60742 8.42773 1.60742C8.13477 1.66602 7.90625 1.73047 7.74219 1.80078C7.57812 1.87109 7.41406 1.94141 7.25 2.01172C6.85156 2.22266 6.48242 2.46875 6.14258 2.75C6.10742 2.77344 6.06641 2.79687 6.01953 2.82031C5.97266 2.84375 5.9375 2.86719 5.91406 2.89062C5.85547 2.9375 5.80273 2.99609 5.75586 3.06641C5.7207 3.13672 5.67383 3.20703 5.61523 3.27734C5.55664 3.35937 5.49219 3.44141 5.42188 3.52344C5.36328 3.59375 5.32227 3.67578 5.29883 3.76953C5.22852 3.80469 5.18164 3.875 5.1582 3.98047C5.13477 4.07422 5.09375 4.15039 5.03516 4.20898C5.01172 4.30273 4.98242 4.39063 4.94727 4.47266C4.91211 4.54297 4.88281 4.63086 4.85938 4.73633C4.96484 4.94727 5.04102 5.11133 5.08789 5.22852C5.14648 5.3457 5.20508 5.46289 5.26367 5.58008C5.27539 5.70898 5.31055 5.82617 5.36914 5.93164C5.43945 6.02539 5.50391 6.13672 5.5625 6.26562C5.72656 6.53516 5.87305 6.82227 6.00195 7.12695C6.14258 7.41992 6.29492 7.70117 6.45898 7.9707C6.5293 8.13477 6.59375 8.29883 6.65234 8.46289C6.72266 8.61523 6.82227 8.75 6.95117 8.86719C6.97461 8.94922 7.00391 9.03125 7.03906 9.11328C7.08594 9.18359 7.12695 9.25977 7.16211 9.3418C7.20898 9.48242 7.27344 9.63477 7.35547 9.79883C7.39062 9.89258 7.43164 9.97461 7.47852 10.0449C7.52539 10.1152 7.56055 10.1855 7.58398 10.2559C7.63086 10.3613 7.66602 10.4961 7.68945 10.6602C7.72461 10.8125 7.73633 10.9414 7.72461 11.0469C7.72461 11.1641 7.71875 11.2461 7.70703 11.293C7.69531 11.3398 7.67773 11.3809 7.6543 11.416C7.63086 11.4395 7.60742 11.4688 7.58398 11.5039C7.56055 11.5391 7.53711 11.6094 7.51367 11.7148C7.4082 11.9023 7.28516 12.0723 7.14453 12.2246C7.00391 12.377 6.88086 12.5527 6.77539 12.752C6.70508 12.8457 6.62891 12.9277 6.54688 12.998C6.46484 13.0684 6.38281 13.1387 6.30078 13.209C6.21875 13.2676 6.13086 13.3203 6.03711 13.3672C5.95508 13.4141 5.87891 13.4727 5.80859 13.543C5.60938 13.7188 5.39844 13.8477 5.17578 13.9297C4.96484 14 4.76562 14.0996 4.57812 14.2285C4.50781 14.2285 4.4375 14.2344 4.36719 14.2461C4.29688 14.2695 4.22656 14.293 4.15625 14.3164C4.09766 14.3398 4.0332 14.3633 3.96289 14.3867C3.9043 14.4102 3.83984 14.4336 3.76953 14.457C3.71094 14.4805 3.6582 14.5039 3.61133 14.5273C3.57617 14.5508 3.5293 14.5742 3.4707 14.5977C3.30664 14.6328 3.13086 14.6504 2.94336 14.6504C2.75586 14.6621 2.5625 14.6445 2.36328 14.5977C2.14062 14.5156 1.96484 14.4805 1.83594 14.4922C1.71875 14.5039 1.61328 14.457 1.51953 14.3516C1.46094 14.3281 1.42578 14.2988 1.41406 14.2637C1.41406 14.2285 1.39062 14.1934 1.34375 14.1582C1.21484 14.0527 1.13281 13.9883 1.09766 13.9648C1.0625 13.9414 1.02734 13.9121 0.992188 13.877C0.816406 13.7363 0.675781 13.5723 0.570312 13.3848C0.535156 13.3262 0.5 13.2676 0.464844 13.209C0.429688 13.1504 0.40625 13.0977 0.394531 13.0508C0.371094 12.9805 0.371094 12.9102 0.394531 12.8398C0.40625 12.7578 0.388672 12.6816 0.341797 12.6113C0.353516 12.5293 0.353516 12.4414 0.341797 12.3477C0.330078 12.2539 0.324219 12.1719 0.324219 12.1016C0.324219 11.9961 0.341797 11.8906 0.376953 11.7852C0.400391 11.6797 0.394531 11.5977 0.359375 11.5391C0.382812 11.3867 0.417969 11.2754 0.464844 11.2051C0.511719 11.123 0.570312 11.0352 0.640625 10.9414C0.839844 10.8477 1.00391 10.7656 1.13281 10.6953C1.27344 10.6133 1.41406 10.5371 1.55469 10.4668C1.61328 10.4434 1.66016 10.4199 1.69531 10.3965C1.74219 10.373 1.78906 10.3496 1.83594 10.3262C1.94141 10.2676 2.05273 10.2207 2.16992 10.1855C2.28711 10.1504 2.41016 10.1035 2.53906 10.0449C2.64453 9.98633 2.75 9.93359 2.85547 9.88672C2.97266 9.83984 3.08398 9.78711 3.18945 9.72852C3.25977 9.72852 3.32422 9.71094 3.38281 9.67578C3.45312 9.64062 3.5293 9.62305 3.61133 9.62305C3.63477 9.62305 3.66406 9.62891 3.69922 9.64062C3.73438 9.64062 3.76953 9.64062 3.80469 9.64062C3.86328 9.64062 3.92773 9.64062 3.99805 9.64062C4.06836 9.64062 4.13281 9.65234 4.19141 9.67578C4.25 9.69922 4.30273 9.73438 4.34961 9.78125C4.39648 9.82812 4.46094 9.85156 4.54297 9.85156C4.625 9.93359 4.68945 10.0273 4.73633 10.1328C4.79492 10.2266 4.8418 10.3262 4.87695 10.4316C4.90039 10.4902 4.91797 10.5723 4.92969 10.6777C4.95312 10.7832 4.96484 10.8711 4.96484 10.9414C4.95312 11.1172 4.88867 11.252 4.77148 11.3457C4.66602 11.4395 4.56641 11.5508 4.47266 11.6797C4.30859 11.7383 4.12695 11.8379 3.92773 11.9785C3.81055 11.9668 3.70508 11.9902 3.61133 12.0488C3.51758 12.0957 3.40625 12.1367 3.27734 12.1719C3.21875 12.1836 3.1543 12.1836 3.08398 12.1719C3.01367 12.1602 2.94922 12.166 2.89062 12.1895C2.83203 12.2012 2.77344 12.2246 2.71484 12.2598C2.65625 12.2949 2.59766 12.3008 2.53906 12.2773C2.48047 12.2539 2.43359 12.207 2.39844 12.1367C2.375 12.0664 2.375 11.9961 2.39844 11.9258C2.46875 11.8086 2.56836 11.7383 2.69727 11.7148C2.83789 11.6797 2.97266 11.627 3.10156 11.5566C3.21875 11.498 3.31836 11.4219 3.40039 11.3281C3.49414 11.2344 3.58789 11.1406 3.68164 11.0469C3.74023 10.9766 3.81055 10.9062 3.89258 10.8359C3.97461 10.7656 3.99219 10.6719 3.94531 10.5547C3.83984 10.4727 3.7168 10.4492 3.57617 10.4844C3.44727 10.5195 3.33008 10.5605 3.22461 10.6074C3.01367 10.7012 2.80273 10.8008 2.5918 10.9062C2.39258 11.0117 2.19336 11.1113 1.99414 11.2051C1.90039 11.2402 1.83008 11.2812 1.7832 11.3281C1.75977 11.3633 1.74219 11.4102 1.73047 11.4688C1.71875 11.5273 1.70117 11.5801 1.67773 11.627C1.5957 11.8027 1.57227 11.9785 1.60742 12.1543C1.63086 12.2129 1.66016 12.2715 1.69531 12.3301C1.73047 12.377 1.74805 12.4297 1.74805 12.4883C1.79492 12.5352 1.83594 12.582 1.87109 12.6289C1.90625 12.6641 1.94141 12.7051 1.97656 12.752C2.01172 12.7754 2.04102 12.793 2.06445 12.8047C2.08789 12.8047 2.12305 12.8105 2.16992 12.8223C2.28711 12.8926 2.42773 12.957 2.5918 13.0156C2.66211 13.0391 2.76758 13.0742 2.9082 13.1211C3.06055 13.168 3.16602 13.1914 3.22461 13.1914C3.2832 13.2031 3.35938 13.1914 3.45312 13.1562C3.54688 13.1211 3.62891 13.0918 3.69922 13.0684C3.96875 12.9395 4.24414 12.8047 4.52539 12.6641C4.80664 12.5234 5.08203 12.3887 5.35156 12.2598C5.44531 12.2012 5.5332 12.1367 5.61523 12.0664C5.69727 11.9844 5.76758 11.8965 5.82617 11.8027C5.93164 11.6738 6.01953 11.5156 6.08984 11.3281C6.16016 11.1406 6.21289 10.9473 6.24805 10.748C6.25977 10.7012 6.26562 10.6602 6.26562 10.625C6.26562 10.5781 6.26562 10.5371 6.26562 10.502C6.19531 10.373 6.16016 10.2969 6.16016 10.2734C6.17188 10.2383 6.16602 10.209 6.14258 10.1855C6.06055 10.0449 6.00781 9.95117 5.98438 9.9043C5.97266 9.8457 5.95508 9.79297 5.93164 9.74609C5.84961 9.61719 5.75 9.50586 5.63281 9.41211C5.51562 9.31836 5.43945 9.17773 5.4043 8.99023C5.33398 8.93164 5.28125 8.85547 5.24609 8.76172C5.22266 8.66797 5.16406 8.60938 5.07031 8.58594C5.04688 8.52734 5.02344 8.48047 5 8.44531C4.98828 8.39844 4.9707 8.33984 4.94727 8.26953C4.87695 8.1875 4.82422 8.09961 4.78906 8.00586C4.71875 7.94727 4.66016 7.88281 4.61328 7.8125C4.56641 7.74219 4.51367 7.66602 4.45508 7.58398C4.36133 7.49023 4.29688 7.41992 4.26172 7.37305C4.21484 7.31445 4.17383 7.25 4.13867 7.17969C4.11523 7.10938 4.07422 7.04492 4.01562 6.98633C3.98047 6.92773 3.93359 6.875 3.875 6.82812C3.82812 6.78125 3.79297 6.72266 3.76953 6.65234C3.67578 6.54688 3.59961 6.42969 3.54102 6.30078C3.48242 6.16016 3.43555 6.00781 3.40039 5.84375C3.42383 5.70312 3.40039 5.58008 3.33008 5.47461C3.25977 5.36914 3.24219 5.23438 3.27734 5.07031C3.33594 4.90625 3.40039 4.74219 3.4707 4.57812C3.54102 4.41406 3.59961 4.26172 3.64648 4.12109C3.70508 4.09766 3.74023 4.05664 3.75195 3.99805C3.76367 3.92773 3.78125 3.86328 3.80469 3.80469L3.98047 3.52344ZM19.7164 4.29688C19.8687 4.32031 19.9977 4.33789 20.1031 4.34961C20.2086 4.36133 20.3023 4.37305 20.3844 4.38477C20.4781 4.38477 20.5719 4.38477 20.6656 4.38477C20.7594 4.37305 20.8766 4.35547 21.0172 4.33203C21.275 4.29688 21.5035 4.26758 21.7027 4.24414C21.9137 4.20898 22.1422 4.17969 22.3883 4.15625C22.4586 4.14453 22.5289 4.14453 22.5992 4.15625C22.6812 4.16797 22.7574 4.17383 22.8277 4.17383C22.9801 4.17383 23.1266 4.16797 23.2672 4.15625C23.4195 4.14453 23.5602 4.13281 23.6891 4.12109C23.7359 4.10938 23.777 4.09766 23.8121 4.08594C23.8473 4.07422 23.8824 4.07422 23.9176 4.08594C24.023 4.08594 24.1285 4.08594 24.234 4.08594C24.3395 4.07422 24.4332 4.10938 24.5152 4.19141C24.5504 4.30859 24.5621 4.37305 24.5504 4.38477C24.5387 4.39648 24.527 4.41406 24.5152 4.4375C24.5035 4.58984 24.4801 4.66602 24.4449 4.66602C24.4215 4.66602 24.4098 4.67773 24.4098 4.70117C24.316 4.72461 24.234 4.74805 24.1637 4.77148C24.1051 4.7832 24.0582 4.81836 24.023 4.87695C23.8238 4.92383 23.6363 4.93555 23.4605 4.91211C23.2965 4.87695 23.1266 4.90039 22.9508 4.98242C22.8687 5.01758 22.7809 5.06445 22.6871 5.12305C22.6051 5.16992 22.4996 5.16992 22.3707 5.12305C22.2535 5.12305 22.1187 5.12891 21.9664 5.14062C21.8141 5.15234 21.6676 5.16406 21.527 5.17578C21.2574 5.19922 21.023 5.22266 20.8238 5.24609C20.6363 5.25781 20.4547 5.26953 20.2789 5.28125C20.1031 5.28125 19.9215 5.28711 19.734 5.29883C19.5582 5.31055 19.3414 5.31641 19.0836 5.31641C18.9898 5.39844 18.9254 5.49805 18.8902 5.61523C18.8668 5.73242 18.8082 5.82617 18.7145 5.89648C18.6207 6.11914 18.5445 6.27148 18.4859 6.35352C18.4273 6.42383 18.3863 6.51172 18.3629 6.61719C18.1988 6.82812 18.0465 7.05078 17.9059 7.28516C17.777 7.50781 17.6246 7.71875 17.4488 7.91797C17.4254 8.04688 17.3785 8.16406 17.3082 8.26953C17.2496 8.36328 17.2086 8.49219 17.1852 8.65625C17.0562 8.83203 16.9625 9.02539 16.9039 9.23633C16.8453 9.44727 16.7691 9.66992 16.6754 9.9043C16.652 9.99805 16.6227 10.0918 16.5875 10.1855C16.5641 10.2676 16.5348 10.3555 16.4996 10.4492C16.4527 10.5664 16.3941 10.6777 16.3238 10.7832C16.2652 10.877 16.2066 10.9824 16.148 11.0996C16.1246 11.123 16.1129 11.1582 16.1129 11.2051C16.1129 11.2402 16.107 11.2695 16.0953 11.293C16.0602 11.375 16.025 11.4512 15.9898 11.5215C15.9547 11.5801 15.9254 11.6387 15.902 11.6973C15.8785 11.7559 15.8609 11.8203 15.8492 11.8906C15.8492 11.9492 15.8375 12.0078 15.8141 12.0664C15.8023 12.1016 15.7906 12.1367 15.7789 12.1719C15.7672 12.1953 15.7555 12.2246 15.7437 12.2598C15.7086 12.4238 15.7086 12.5352 15.7437 12.5938C15.7789 12.6523 15.8082 12.7109 15.8316 12.7695C15.8551 12.8398 15.8785 12.9043 15.902 12.9629C15.9254 13.0098 15.943 13.0625 15.9547 13.1211C16.0133 13.1445 16.066 13.168 16.1129 13.1914C16.1715 13.2148 16.2301 13.2266 16.2887 13.2266C16.359 13.2383 16.4352 13.209 16.5172 13.1387C16.5992 13.0566 16.6695 13.0098 16.7281 12.998C16.8102 12.9746 16.8863 12.9629 16.9566 12.9629C17.0387 12.9629 17.109 12.9453 17.1676 12.9102C17.2379 12.8516 17.2965 12.793 17.3434 12.7344C17.3902 12.6758 17.4547 12.6348 17.5367 12.6113C17.7242 12.5645 17.8238 12.5293 17.8355 12.5059C17.8473 12.4707 17.8883 12.4238 17.9586 12.3652C18.0406 12.3066 18.1109 12.2539 18.1695 12.207C18.2398 12.1484 18.3219 12.0898 18.4156 12.0312C18.5328 11.9727 18.5973 11.9375 18.609 11.9258C18.6324 11.9141 18.6852 11.873 18.7672 11.8027C18.8844 11.7441 18.984 11.6797 19.066 11.6094C19.148 11.5391 19.2418 11.4746 19.3473 11.416C19.4645 11.3691 19.5348 11.3398 19.5582 11.3281C19.5816 11.3047 19.5934 11.2871 19.5934 11.2754C19.6051 11.2637 19.6168 11.2461 19.6285 11.2227C19.652 11.1992 19.7105 11.1582 19.8043 11.0996C19.8512 11.0059 19.9039 10.9297 19.9625 10.8711C20.0211 10.8125 20.0914 10.7363 20.1734 10.6426C20.2437 10.5605 20.3141 10.4902 20.3844 10.4316C20.4664 10.373 20.5367 10.3145 20.5953 10.2559C20.6305 10.2324 20.6598 10.209 20.6832 10.1855C20.7066 10.1504 20.7477 10.127 20.8062 10.1152C20.8766 10.0566 20.9293 10.0098 20.9645 9.97461C21.0113 9.92773 21.0816 9.86328 21.1754 9.78125C21.1988 9.75781 21.2281 9.72852 21.2633 9.69336C21.2984 9.6582 21.3277 9.63477 21.3512 9.62305C21.398 9.62305 21.4332 9.64062 21.4566 9.67578C21.4918 9.71094 21.5328 9.72852 21.5797 9.72852C21.568 9.88086 21.5621 9.98047 21.5621 10.0273C21.5621 10.0625 21.5504 10.1035 21.527 10.1504C21.4566 10.2559 21.3746 10.3145 21.2809 10.3262C21.1988 10.3379 21.1344 10.4023 21.0875 10.5195C21.0523 10.4961 21.0055 10.4902 20.9469 10.502C20.9 10.5137 20.8648 10.5312 20.8414 10.5547C20.8648 10.6016 20.8766 10.6426 20.8766 10.6777C20.8766 10.7129 20.8824 10.7539 20.8941 10.8008C20.6832 11.0117 20.5426 11.1816 20.4723 11.3105C20.3316 11.4629 20.2555 11.5508 20.2437 11.5742C20.232 11.5859 20.2262 11.5918 20.2262 11.5918C20.2262 11.5918 20.2203 11.5977 20.2086 11.6094C20.1969 11.6211 20.1559 11.6621 20.0855 11.7324C19.9215 11.8613 19.7984 11.9844 19.7164 12.1016C19.6344 12.2188 19.5113 12.3242 19.3473 12.418C19.2184 12.5117 19.1305 12.582 19.0836 12.6289C19.0367 12.6758 18.9664 12.7402 18.8727 12.8223C18.8258 12.8691 18.7789 12.9219 18.732 12.9805C18.6969 13.0273 18.65 13.0742 18.5914 13.1211C18.5094 13.1797 18.4273 13.2324 18.3453 13.2793C18.275 13.3262 18.2105 13.3848 18.152 13.4551C17.9762 13.5371 17.8473 13.6309 17.7652 13.7363C17.6949 13.8418 17.5836 13.9414 17.4312 14.0352C17.3258 14.1055 17.1793 14.1934 16.9918 14.2988C16.816 14.4043 16.6637 14.4805 16.5348 14.5273C16.4996 14.5391 16.4645 14.5508 16.4293 14.5625C16.4059 14.5742 16.3766 14.5859 16.3414 14.5977C16.2477 14.5391 16.1539 14.4805 16.0602 14.4219C15.9781 14.3633 15.9078 14.2812 15.8492 14.1758C15.7437 14.0938 15.6559 14.0352 15.5855 14C15.527 13.9648 15.4684 13.918 15.4098 13.8594C15.2926 13.6602 15.1578 13.4609 15.0055 13.2617C14.8648 13.0625 14.7535 12.8398 14.6715 12.5938C14.648 12.5469 14.6305 12.5 14.6187 12.4531C14.6187 12.3945 14.6129 12.3359 14.6012 12.2773C14.5777 12.1836 14.5543 12.1016 14.5309 12.0312C14.5074 11.9609 14.5016 11.873 14.5133 11.7676C14.5133 11.6973 14.525 11.6211 14.5484 11.5391C14.5719 11.457 14.5953 11.3691 14.6187 11.2754C14.6656 11.123 14.7184 10.9766 14.777 10.8359C14.8473 10.6953 14.9 10.543 14.9352 10.3789C14.9703 10.25 15.0055 10.1328 15.0406 10.0273C15.0758 9.92188 15.1168 9.80469 15.1637 9.67578C15.1871 9.61719 15.1988 9.56445 15.1988 9.51758C15.2105 9.45898 15.2457 9.41797 15.3043 9.39453C15.3512 9.16016 15.4273 8.9375 15.5328 8.72656C15.6383 8.50391 15.7437 8.29297 15.8492 8.09375C15.9781 7.84766 16.0953 7.5957 16.2008 7.33789C16.318 7.08008 16.441 6.82812 16.5699 6.58203C16.5816 6.44141 16.6285 6.32422 16.7105 6.23047C16.7223 6.10156 16.7691 5.97852 16.8512 5.86133C16.9332 5.73242 16.9918 5.60352 17.027 5.47461C16.898 5.43945 16.7516 5.43945 16.5875 5.47461C16.4352 5.49805 16.3004 5.52148 16.1832 5.54492C15.9723 5.55664 15.7496 5.55664 15.5152 5.54492C15.4332 5.5332 15.3512 5.52148 15.2691 5.50977C15.1988 5.48633 15.1285 5.47461 15.0582 5.47461C14.9527 5.48633 14.8707 5.48047 14.8121 5.45703C14.7652 5.42188 14.7125 5.41602 14.6539 5.43945C14.5016 5.31055 14.3902 5.22266 14.3199 5.17578C14.2496 5.12891 14.1852 5.08789 14.1266 5.05273C14.0562 5.00586 13.9977 4.95898 13.9508 4.91211C13.8922 4.85352 13.8453 4.77148 13.8102 4.66602C13.8102 4.63086 13.8277 4.60156 13.8629 4.57812C13.898 4.55469 13.9273 4.53125 13.9508 4.50781C14.0445 4.48437 14.15 4.47852 14.2672 4.49023C14.3844 4.49023 14.4781 4.4668 14.5484 4.41992C14.7359 4.44336 14.9059 4.43164 15.0582 4.38477C15.2223 4.33789 15.3922 4.32031 15.568 4.33203C15.6031 4.33203 15.6383 4.33789 15.6734 4.34961C15.7086 4.36133 15.7437 4.36719 15.7789 4.36719C15.8375 4.37891 15.8844 4.37891 15.9195 4.36719C15.9664 4.35547 16.0191 4.34375 16.0777 4.33203C16.148 4.32031 16.2242 4.32031 16.3062 4.33203C16.3883 4.34375 16.4703 4.34375 16.5523 4.33203C16.7047 4.32031 16.8863 4.33789 17.0973 4.38477C17.3199 4.41992 17.5133 4.4082 17.6773 4.34961C17.7359 4.18555 17.8004 4.02148 17.8707 3.85742C17.9527 3.68164 18.0172 3.51172 18.0641 3.34766C18.1109 3.27734 18.1578 3.20117 18.2047 3.11914C18.2516 3.02539 18.2867 2.9375 18.3102 2.85547C18.3805 2.73828 18.4332 2.64453 18.4684 2.57422C18.5152 2.50391 18.568 2.43359 18.6266 2.36328C18.7086 2.19922 18.7672 2.04102 18.8023 1.88867C18.8492 1.72461 18.9078 1.54883 18.9781 1.36133C19.1305 1.19727 19.2828 0.998047 19.4352 0.763672C19.5172 0.775391 19.5816 0.751953 19.6285 0.693359C19.6871 0.634766 19.7691 0.640625 19.8746 0.710938C19.8746 0.746094 19.8863 0.78125 19.9098 0.816406C19.9449 0.839844 19.9508 0.880859 19.9273 0.939453C19.9859 0.998047 20.0328 1.05078 20.068 1.09766C20.1031 1.14453 20.1324 1.19727 20.1559 1.25586C20.1793 1.34961 20.1676 1.46094 20.1207 1.58984C20.0855 1.70703 20.0973 1.81836 20.1559 1.92383C20.1793 1.98242 20.1852 2.04102 20.1734 2.09961C20.1617 2.14648 20.1676 2.19336 20.191 2.24023C20.2145 2.29883 20.2437 2.35742 20.2789 2.41602C20.3258 2.47461 20.3492 2.55078 20.3492 2.64453C20.3492 2.67969 20.3375 2.72656 20.3141 2.78516C20.3023 2.83203 20.2848 2.88477 20.2613 2.94336C20.2145 3.11914 20.1793 3.24219 20.1559 3.3125C20.1324 3.38281 20.109 3.45898 20.0855 3.54102C20.0035 3.63477 19.9625 3.69922 19.9625 3.73438C19.9625 3.75781 19.9566 3.78125 19.9449 3.80469C19.9098 3.875 19.8687 3.96289 19.8219 4.06836C19.7867 4.16211 19.7516 4.23828 19.7164 4.29688ZM28.0695 8.99023C27.9875 9.0957 27.9055 9.19531 27.8234 9.28906C27.7414 9.38281 27.6477 9.4707 27.5422 9.55273C27.4719 9.68164 27.3898 9.79883 27.2961 9.9043C27.2023 10.0098 27.1086 10.1094 27.0148 10.2031C26.968 10.2969 26.9152 10.373 26.8566 10.4316C26.798 10.4785 26.7336 10.5312 26.6633 10.5898C26.6281 10.6484 26.5812 10.707 26.5227 10.7656C26.4758 10.8242 26.4289 10.8828 26.382 10.9414C26.3469 11 26.3176 11.0645 26.2941 11.1348C26.2707 11.2051 26.2766 11.2812 26.3117 11.3633C26.4406 11.3867 26.5695 11.3691 26.6984 11.3105C26.8273 11.252 26.9387 11.1992 27.0324 11.1523C27.1262 11.0938 27.2199 11.0469 27.3137 11.0117C27.4191 10.9648 27.5129 10.9121 27.5949 10.8535L28.052 10.3965C28.134 10.3262 28.2043 10.25 28.2629 10.168C28.3215 10.0859 28.3859 9.99805 28.4562 9.9043C28.4797 9.78711 28.5266 9.66992 28.5969 9.55273C28.6672 9.42383 28.6965 9.30078 28.6848 9.18359C28.673 9.11328 28.6496 9.05469 28.6145 9.00781C28.591 8.94922 28.5734 8.89062 28.5617 8.83203C28.4445 8.83203 28.3508 8.85547 28.2805 8.90234C28.2219 8.9375 28.1516 8.9668 28.0695 8.99023ZM25.2395 10.1152C25.2629 10.1035 25.3098 10.0566 25.3801 9.97461C25.4621 9.88086 25.55 9.78125 25.6437 9.67578C25.7375 9.55859 25.8254 9.45898 25.9074 9.37695C25.9895 9.2832 26.048 9.23047 26.0832 9.21875C26.1184 9.16016 26.1477 9.11328 26.1711 9.07812C26.2062 9.03125 26.2531 8.99023 26.3117 8.95508C26.4055 8.7793 26.5285 8.63867 26.6809 8.5332C26.8332 8.41602 26.9797 8.28125 27.1203 8.12891C27.343 8.03516 27.5656 7.91797 27.7883 7.77734C28.0227 7.625 28.2805 7.54297 28.5617 7.53125C28.6906 7.58984 28.8137 7.60742 28.9309 7.58398C29.0598 7.56055 29.177 7.58984 29.2824 7.67188C29.341 7.77734 29.3937 7.84766 29.4406 7.88281C29.4875 7.90625 29.5227 7.93555 29.5461 7.9707C29.593 8.12305 29.6281 8.22266 29.6516 8.26953C29.675 8.30469 29.6926 8.35156 29.7043 8.41016C29.716 8.58594 29.7277 8.71484 29.7395 8.79688C29.7512 8.86719 29.7512 8.9375 29.7395 9.00781C29.7043 9.32422 29.6457 9.62305 29.5637 9.9043C29.5402 9.97461 29.5168 10.0508 29.4934 10.1328C29.4699 10.2031 29.4406 10.2676 29.4055 10.3262C29.3234 10.4316 29.259 10.5254 29.2121 10.6074C29.177 10.6777 29.1418 10.7363 29.1066 10.7832C28.966 10.9238 28.843 11.041 28.7375 11.1348C28.632 11.1934 28.5266 11.2578 28.4211 11.3281C28.3156 11.3984 28.1984 11.4453 28.0695 11.4688C28.0109 11.5039 27.9582 11.5391 27.9113 11.5742C27.8645 11.5977 27.8059 11.6152 27.7355 11.627C27.6184 11.709 27.5012 11.7734 27.384 11.8203C27.2668 11.8555 27.1437 11.9023 27.0148 11.9609C26.9445 11.9844 26.8684 12.0254 26.7863 12.084C26.7043 12.1426 26.6223 12.1895 26.5402 12.2246C26.4699 12.248 26.382 12.2715 26.2766 12.2949C26.1828 12.3066 26.1066 12.3242 26.048 12.3477C26.1066 12.4766 26.1301 12.623 26.1184 12.7871C26.1066 12.9512 26.1359 13.0977 26.2062 13.2266C26.3586 13.2617 26.5227 13.291 26.6984 13.3145C26.8859 13.3262 27.0617 13.3203 27.2258 13.2969C27.2844 13.2852 27.3488 13.2676 27.4191 13.2441C27.4895 13.209 27.5598 13.1855 27.6301 13.1738C27.759 13.1504 27.882 13.1211 27.9992 13.0859C28.1281 13.0508 28.2395 13.0039 28.3332 12.9453C28.673 12.8281 29.0012 12.6699 29.3176 12.4707C29.634 12.2715 29.9094 12.0547 30.1437 11.8203C30.2844 11.7266 30.4367 11.5977 30.6008 11.4336C30.7766 11.2695 30.9113 11.1172 31.0051 10.9766C31.1809 10.7891 31.3332 10.6426 31.4621 10.5371C31.6027 10.4316 31.7316 10.3848 31.8488 10.3965C31.9426 10.3965 32.0305 10.4551 32.1125 10.5723C32.2062 10.6777 32.2004 10.7949 32.0949 10.9238C31.9777 10.9941 31.8547 11.0996 31.7258 11.2402C31.5969 11.3809 31.4621 11.4805 31.3215 11.5391C31.216 11.6094 31.0812 11.7383 30.9172 11.9258C30.7648 12.1133 30.6359 12.2539 30.5305 12.3477C30.4836 12.3945 30.4191 12.4531 30.3371 12.5234C30.2668 12.582 30.2082 12.6406 30.1613 12.6992C29.9973 12.8398 29.8215 12.9688 29.634 13.0859C29.5637 13.0625 29.5109 13.0742 29.4758 13.1211C29.4406 13.168 29.3937 13.2148 29.3352 13.2617C29.3 13.2852 29.259 13.3086 29.2121 13.332C29.177 13.3555 29.1418 13.3789 29.1066 13.4023C29.0129 13.4844 28.9074 13.5664 28.7902 13.6484C28.6848 13.7305 28.5734 13.8008 28.4562 13.8594C28.2219 14 27.9875 14.1172 27.7531 14.2109C27.5187 14.3164 27.2902 14.4453 27.0676 14.5977C26.9973 14.6094 26.9328 14.6152 26.8742 14.6152C26.8156 14.627 26.757 14.6387 26.6984 14.6504C26.6281 14.6738 26.5637 14.6855 26.5051 14.6855C26.4582 14.6855 26.3879 14.6738 26.2941 14.6504C26.0832 14.5918 25.9074 14.5215 25.7668 14.4395C25.6262 14.3574 25.4855 14.2402 25.3449 14.0879C25.2746 14.0176 25.1984 13.9531 25.1164 13.8945C25.0344 13.8359 24.9699 13.7715 24.923 13.7012C24.8879 13.6426 24.8469 13.5488 24.8 13.4199C24.7531 13.291 24.7121 13.1562 24.677 13.0156C24.6418 12.8633 24.6125 12.7168 24.5891 12.5762C24.5656 12.4355 24.5539 12.3301 24.5539 12.2598C24.5773 12.2129 24.6066 12.1309 24.6418 12.0137C24.6652 11.8965 24.6945 11.7734 24.7297 11.6445C24.7531 11.5039 24.7766 11.375 24.8 11.2578C24.8117 11.1406 24.8176 11.0586 24.8176 11.0117C24.8293 11 24.8586 10.9531 24.9055 10.8711C24.9523 10.7773 25.0051 10.6777 25.0637 10.5723C25.1105 10.4668 25.1516 10.373 25.1867 10.291C25.2219 10.1973 25.2395 10.1387 25.2395 10.1152ZM39.2879 8.99023C39.2059 9.0957 39.1238 9.19531 39.0418 9.28906C38.9598 9.38281 38.866 9.4707 38.7605 9.55273C38.6902 9.68164 38.6082 9.79883 38.5145 9.9043C38.4207 10.0098 38.327 10.1094 38.2332 10.2031C38.1863 10.2969 38.1336 10.373 38.075 10.4316C38.0164 10.4785 37.952 10.5312 37.8816 10.5898C37.8465 10.6484 37.7996 10.707 37.741 10.7656C37.6941 10.8242 37.6473 10.8828 37.6004 10.9414C37.5652 11 37.5359 11.0645 37.5125 11.1348C37.4891 11.2051 37.4949 11.2812 37.5301 11.3633C37.659 11.3867 37.7879 11.3691 37.9168 11.3105C38.0457 11.252 38.157 11.1992 38.2508 11.1523C38.3445 11.0938 38.4383 11.0469 38.532 11.0117C38.6375 10.9648 38.7313 10.9121 38.8133 10.8535L39.2703 10.3965C39.3523 10.3262 39.4227 10.25 39.4813 10.168C39.5398 10.0859 39.6043 9.99805 39.6746 9.9043C39.698 9.78711 39.7449 9.66992 39.8152 9.55273C39.8855 9.42383 39.9148 9.30078 39.9031 9.18359C39.8914 9.11328 39.868 9.05469 39.8328 9.00781C39.8094 8.94922 39.7918 8.89062 39.7801 8.83203C39.6629 8.83203 39.5691 8.85547 39.4988 8.90234C39.4402 8.9375 39.3699 8.9668 39.2879 8.99023ZM36.4578 10.1152C36.4813 10.1035 36.5281 10.0566 36.5984 9.97461C36.6805 9.88086 36.7684 9.78125 36.8621 9.67578C36.9559 9.55859 37.0438 9.45898 37.1258 9.37695C37.2078 9.2832 37.2664 9.23047 37.3016 9.21875C37.3367 9.16016 37.366 9.11328 37.3895 9.07812C37.4246 9.03125 37.4715 8.99023 37.5301 8.95508C37.6238 8.7793 37.7469 8.63867 37.8992 8.5332C38.0516 8.41602 38.198 8.28125 38.3387 8.12891C38.5613 8.03516 38.784 7.91797 39.0066 7.77734C39.241 7.625 39.4988 7.54297 39.7801 7.53125C39.909 7.58984 40.032 7.60742 40.1492 7.58398C40.2781 7.56055 40.3953 7.58984 40.5008 7.67188C40.5594 7.77734 40.6121 7.84766 40.659 7.88281C40.7059 7.90625 40.741 7.93555 40.7645 7.9707C40.8113 8.12305 40.8465 8.22266 40.8699 8.26953C40.8934 8.30469 40.9109 8.35156 40.9227 8.41016C40.9344 8.58594 40.9461 8.71484 40.9578 8.79688C40.9695 8.86719 40.9695 8.9375 40.9578 9.00781C40.9227 9.32422 40.8641 9.62305 40.782 9.9043C40.7586 9.97461 40.7352 10.0508 40.7117 10.1328C40.6883 10.2031 40.659 10.2676 40.6238 10.3262C40.5418 10.4316 40.4773 10.5254 40.4305 10.6074C40.3953 10.6777 40.3602 10.7363 40.325 10.7832C40.1844 10.9238 40.0613 11.041 39.9559 11.1348C39.8504 11.1934 39.7449 11.2578 39.6395 11.3281C39.534 11.3984 39.4168 11.4453 39.2879 11.4688C39.2293 11.5039 39.1766 11.5391 39.1297 11.5742C39.0828 11.5977 39.0242 11.6152 38.9539 11.627C38.8367 11.709 38.7195 11.7734 38.6023 11.8203C38.4852 11.8555 38.3621 11.9023 38.2332 11.9609C38.1629 11.9844 38.0867 12.0254 38.0047 12.084C37.9227 12.1426 37.8406 12.1895 37.7586 12.2246C37.6883 12.248 37.6004 12.2715 37.4949 12.2949C37.4012 12.3066 37.325 12.3242 37.2664 12.3477C37.325 12.4766 37.3484 12.623 37.3367 12.7871C37.325 12.9512 37.3543 13.0977 37.4246 13.2266C37.577 13.2617 37.741 13.291 37.9168 13.3145C38.1043 13.3262 38.2801 13.3203 38.4441 13.2969C38.5027 13.2852 38.5672 13.2676 38.6375 13.2441C38.7078 13.209 38.7781 13.1855 38.8484 13.1738C38.9773 13.1504 39.1004 13.1211 39.2176 13.0859C39.3465 13.0508 39.4578 13.0039 39.5516 12.9453C39.8914 12.8281 40.2195 12.6699 40.5359 12.4707C40.8523 12.2715 41.1277 12.0547 41.3621 11.8203C41.5027 11.7266 41.6551 11.5977 41.8191 11.4336C41.9949 11.2695 42.1297 11.1172 42.2234 10.9766C42.3992 10.7891 42.5516 10.6426 42.6805 10.5371C42.8211 10.4316 42.95 10.3848 43.0672 10.3965C43.1609 10.3965 43.2488 10.4551 43.3309 10.5723C43.4246 10.6777 43.4188 10.7949 43.3133 10.9238C43.1961 10.9941 43.073 11.0996 42.9441 11.2402C42.8152 11.3809 42.6805 11.4805 42.5398 11.5391C42.4344 11.6094 42.2996 11.7383 42.1355 11.9258C41.9832 12.1133 41.8543 12.2539 41.7488 12.3477C41.702 12.3945 41.6375 12.4531 41.5555 12.5234C41.4852 12.582 41.4266 12.6406 41.3797 12.6992C41.2156 12.8398 41.0398 12.9688 40.8523 13.0859C40.782 13.0625 40.7293 13.0742 40.6941 13.1211C40.659 13.168 40.6121 13.2148 40.5535 13.2617C40.5184 13.2852 40.4773 13.3086 40.4305 13.332C40.3953 13.3555 40.3602 13.3789 40.325 13.4023C40.2313 13.4844 40.1258 13.5664 40.0086 13.6484C39.9031 13.7305 39.7918 13.8008 39.6746 13.8594C39.4402 14 39.2059 14.1172 38.9715 14.2109C38.7371 14.3164 38.5086 14.4453 38.2859 14.5977C38.2156 14.6094 38.1512 14.6152 38.0926 14.6152C38.034 14.627 37.9754 14.6387 37.9168 14.6504C37.8465 14.6738 37.782 14.6855 37.7234 14.6855C37.6766 14.6855 37.6063 14.6738 37.5125 14.6504C37.3016 14.5918 37.1258 14.5215 36.9852 14.4395C36.8445 14.3574 36.7039 14.2402 36.5633 14.0879C36.493 14.0176 36.4168 13.9531 36.3348 13.8945C36.2527 13.8359 36.1883 13.7715 36.1414 13.7012C36.1063 13.6426 36.0652 13.5488 36.0184 13.4199C35.9715 13.291 35.9305 13.1562 35.8953 13.0156C35.8602 12.8633 35.8309 12.7168 35.8074 12.5762C35.784 12.4355 35.7723 12.3301 35.7723 12.2598C35.7957 12.2129 35.825 12.1309 35.8602 12.0137C35.8836 11.8965 35.9129 11.7734 35.948 11.6445C35.9715 11.5039 35.9949 11.375 36.0184 11.2578C36.0301 11.1406 36.0359 11.0586 36.0359 11.0117C36.0477 11 36.077 10.9531 36.1238 10.8711C36.1707 10.7773 36.2234 10.6777 36.282 10.5723C36.3289 10.4668 36.3699 10.373 36.4051 10.291C36.4402 10.1973 36.4578 10.1387 36.4578 10.1152ZM48.7309 11.7676C48.7895 11.7559 48.8363 11.7324 48.8715 11.6973C48.9066 11.6504 48.9477 11.6094 48.9945 11.5742C49.0297 11.5508 49.0648 11.5273 49.1 11.5039C49.1469 11.4805 49.1879 11.457 49.223 11.4336C49.3637 11.3281 49.4926 11.2109 49.6098 11.082C49.7387 10.9531 49.8676 10.8418 49.9965 10.748C50.1488 10.5723 50.3012 10.4141 50.4535 10.2734C50.6176 10.1211 50.7641 9.95117 50.893 9.76367C51.0687 9.63477 51.2445 9.48242 51.4203 9.30664C51.5141 9.24805 51.602 9.18359 51.684 9.11328C51.7777 9.03125 51.8773 8.96094 51.9828 8.90234C52.0414 8.83203 52.1059 8.75586 52.1762 8.67383C52.2465 8.5918 52.3285 8.52148 52.4223 8.46289C52.516 8.36914 52.6156 8.29883 52.7211 8.25195C52.8383 8.20508 52.9437 8.13477 53.0375 8.04102C53.2133 7.94727 53.3715 7.93555 53.5121 8.00586C53.6527 8.06445 53.7641 8.14062 53.8461 8.23438C53.8695 8.29297 53.8988 8.35156 53.934 8.41016C53.9691 8.45703 54.0102 8.50977 54.057 8.56836C54.0805 8.60352 54.1039 8.63867 54.1273 8.67383C54.1508 8.69727 54.1625 8.73828 54.1625 8.79688C54.1625 8.9375 54.1449 9.07227 54.1098 9.20117C54.0746 9.33008 54.0453 9.45898 54.0219 9.58789C53.9984 9.75195 53.9809 9.91602 53.9691 10.0801C53.9691 10.2324 53.9457 10.3906 53.8988 10.5547C53.9691 10.6484 54.0219 10.748 54.057 10.8535C54.1039 10.959 54.1625 11.0469 54.2328 11.1172C54.2797 11.1055 54.3324 11.0586 54.391 10.9766C54.4496 10.9297 54.5141 10.8887 54.5844 10.8535C54.6664 10.8066 54.7367 10.7539 54.7953 10.6953C54.8891 10.6016 54.9711 10.5195 55.0414 10.4492C55.1234 10.3789 55.2055 10.2969 55.2875 10.2031C55.3695 10.1211 55.4516 10.0449 55.5336 9.97461C55.6156 9.9043 55.7035 9.82812 55.7973 9.74609C55.891 9.65234 55.973 9.55859 56.0434 9.46484C56.1254 9.35938 56.2133 9.25977 56.307 9.16602C56.3422 9.11914 56.3773 9.08984 56.4125 9.07812C56.4594 9.05469 56.4945 9.01367 56.518 8.95508C56.6117 8.9082 56.6879 8.84375 56.7465 8.76172C56.8168 8.67969 56.9105 8.62109 57.0277 8.58594C57.1449 8.57422 57.2211 8.57422 57.2562 8.58594C57.2914 8.59766 57.3441 8.63867 57.4145 8.70898C57.473 8.75586 57.5141 8.81445 57.5375 8.88477C57.5727 8.95508 57.6195 9.01367 57.6781 9.06055C57.7367 9.17773 57.7777 9.26562 57.8012 9.32422C57.8363 9.37109 57.8773 9.41211 57.9242 9.44727C57.9711 9.54102 57.977 9.63477 57.9418 9.72852C57.9184 9.82227 57.8949 9.91602 57.8715 10.0098C57.8598 10.1504 57.848 10.2441 57.8363 10.291C57.8246 10.3262 57.8129 10.373 57.8012 10.4316C57.7309 10.8418 57.6254 11.2402 57.4848 11.627C57.4965 11.7207 57.5199 11.8086 57.5551 11.8906C57.5902 11.9609 57.602 12.0605 57.5902 12.1895C57.6605 12.2012 57.725 12.2012 57.7836 12.1895C57.8539 12.1777 57.9125 12.166 57.9594 12.1543C58.0766 12.1074 58.1937 12.0547 58.3109 11.9961C58.4281 11.9258 58.5453 11.8496 58.6625 11.7676C58.8148 11.6504 58.973 11.5391 59.1371 11.4336C59.3012 11.3164 59.4594 11.1992 59.6117 11.082C59.6703 11.0352 59.7172 10.9941 59.7523 10.959C59.7875 10.9121 59.8344 10.8652 59.893 10.8184C60.0102 10.7246 60.1215 10.6484 60.227 10.5898C60.3441 10.5312 60.4613 10.4727 60.5785 10.4141C60.6371 10.3789 60.684 10.3438 60.7191 10.3086C60.7543 10.2734 60.7953 10.2324 60.8422 10.1855C60.9008 10.127 60.9828 10.0684 61.0883 10.0098C61.1937 9.93945 61.2934 9.88086 61.3871 9.83398C61.5512 9.82227 61.6332 9.85156 61.6332 9.92188C61.6449 9.98047 61.6566 10.0332 61.6684 10.0801C61.516 10.1855 61.3695 10.2969 61.2289 10.4141C61.1 10.5195 60.9652 10.6309 60.8246 10.748C60.7895 10.7715 60.7543 10.7949 60.7191 10.8184C60.6957 10.8301 60.6547 10.8477 60.5961 10.8711C60.5609 10.8945 60.5258 10.9297 60.4906 10.9766C60.4672 11.0117 60.432 11.041 60.3852 11.0645C60.3148 11.123 60.2445 11.1816 60.1742 11.2402C60.1039 11.2871 60.0395 11.3398 59.9809 11.3984C59.8988 11.457 59.8227 11.5156 59.7523 11.5742C59.682 11.6328 59.6176 11.6914 59.559 11.75C59.5004 11.8086 59.4477 11.873 59.4008 11.9434C59.3539 12.0137 59.2953 12.0781 59.225 12.1367C59.1664 12.1602 59.1137 12.1895 59.0668 12.2246C59.0316 12.2598 58.9906 12.2949 58.9437 12.3301C58.9203 12.4004 58.9027 12.4648 58.891 12.5234C58.8793 12.5703 58.8441 12.623 58.7855 12.6816C58.7035 12.752 58.6449 12.8105 58.6098 12.8574C58.5863 12.8926 58.5629 12.9219 58.5395 12.9453C58.5043 12.9688 58.4633 12.9922 58.4164 13.0156C58.3695 13.0273 58.3227 13.0449 58.2758 13.0684C58.2172 13.1035 58.1645 13.1445 58.1176 13.1914C58.0707 13.2383 58.018 13.2852 57.9594 13.332C57.8656 13.3906 57.7836 13.4434 57.7133 13.4902C57.6547 13.5254 57.5727 13.5547 57.4672 13.5781C57.35 13.6602 57.2621 13.7012 57.2035 13.7012C57.1449 13.6895 57.0863 13.6895 57.0277 13.7012C57.0043 13.7129 56.975 13.7012 56.9398 13.666C56.9164 13.6309 56.8871 13.6133 56.852 13.6133C56.7699 13.543 56.7113 13.5137 56.6762 13.5254C56.641 13.5371 56.6 13.5312 56.5531 13.5078C56.4359 13.3789 56.3773 13.2793 56.3773 13.209C56.3773 13.1387 56.3715 13.0625 56.3598 12.9805C56.3363 12.8047 56.3129 12.6289 56.2895 12.4531C56.266 12.2656 56.2484 12.0723 56.2367 11.873C56.2367 11.791 56.2426 11.7148 56.2543 11.6445C56.2777 11.5742 56.2953 11.498 56.307 11.416C56.307 11.3691 56.3012 11.3281 56.2895 11.293C56.2777 11.2461 56.2719 11.2051 56.2719 11.1699C56.2836 11.0762 56.3012 10.9883 56.3246 10.9062C56.348 10.8242 56.3539 10.7422 56.3422 10.6602C56.1898 10.8359 56.0727 10.9648 55.9906 11.0469C55.9086 11.1172 55.8324 11.1992 55.7621 11.293C55.598 11.3867 55.4457 11.4922 55.3051 11.6094C55.1645 11.7148 55.0062 11.7969 54.8305 11.8555C54.6664 12.0195 54.5082 12.166 54.3559 12.2949C54.2035 12.4238 54.0453 12.5703 53.8812 12.7344C53.7875 12.8516 53.6879 12.957 53.5824 13.0508C53.4887 13.1445 53.3773 13.2266 53.2484 13.2969C53.1664 13.3203 53.102 13.3379 53.0551 13.3496C53.0082 13.3496 52.9613 13.332 52.9145 13.2969C52.6684 13.1562 52.5219 12.9746 52.475 12.752C52.4281 12.5293 52.434 12.2832 52.4926 12.0137C52.4574 11.9434 52.4457 11.8672 52.4574 11.7852C52.4691 11.6914 52.4809 11.6035 52.4926 11.5215C52.516 11.4277 52.5336 11.3457 52.5453 11.2754C52.5687 11.1934 52.5687 11.1289 52.5453 11.082C52.5805 10.9062 52.6273 10.7246 52.6859 10.5371C52.7445 10.3496 52.7855 10.168 52.809 9.99219C52.8676 9.91016 52.8734 9.8457 52.8266 9.79883C52.7914 9.75195 52.7562 9.71094 52.7211 9.67578C52.5219 9.79297 52.3285 9.93359 52.141 10.0977C51.9652 10.25 51.7836 10.4082 51.5961 10.5723C51.5023 10.6543 51.4086 10.7363 51.3148 10.8184C51.2328 10.8887 51.1449 10.9648 51.0512 11.0469C50.9574 11.1289 50.8637 11.2109 50.7699 11.293C50.6762 11.3633 50.5941 11.4453 50.5238 11.5391C50.4418 11.6445 50.3773 11.7148 50.3305 11.75C50.2953 11.7852 50.2602 11.8145 50.225 11.8379C50.1664 11.873 50.1195 11.9082 50.0844 11.9434C50.0492 11.9785 50.0141 12.0078 49.9789 12.0312C49.932 12.0664 49.8852 12.0957 49.8383 12.1191C49.7914 12.1309 49.7387 12.1484 49.6801 12.1719C49.6098 12.2188 49.5336 12.2832 49.4516 12.3652C49.3812 12.4355 49.3168 12.5 49.2582 12.5586C49.1996 12.6172 49.1469 12.6641 49.1 12.6992C49.0531 12.7344 49.0062 12.7812 48.9594 12.8398C48.8773 12.957 48.7895 13.0625 48.6957 13.1562C48.6137 13.25 48.5316 13.3496 48.4496 13.4551C48.4379 13.5137 48.4027 13.5723 48.3441 13.6309C48.2973 13.6777 48.2445 13.7305 48.1859 13.7891C48.1391 13.8359 48.0863 13.8887 48.0277 13.9473C47.9809 14.0059 47.9281 14.0469 47.8695 14.0703C47.8344 14.082 47.7934 14.0879 47.7465 14.0879C47.6996 14.0996 47.6527 14.1172 47.6059 14.1406C47.5355 14.1641 47.4594 14.1934 47.3773 14.2285C47.2953 14.2637 47.2074 14.2754 47.1137 14.2637C47.0316 14.252 46.9613 14.2402 46.9027 14.2285C46.8441 14.2285 46.7855 14.2051 46.727 14.1582C46.727 14.0645 46.6977 14 46.6391 13.9648C46.6625 13.8242 46.7035 13.6836 46.7621 13.543C46.809 13.4023 46.8441 13.2676 46.8676 13.1387C46.9496 13.0215 47.0199 12.8926 47.0785 12.752C47.1254 12.5996 47.184 12.4531 47.2543 12.3125C47.3129 12.1484 47.3773 11.9961 47.4477 11.8555C47.5062 11.7148 47.5648 11.5742 47.6234 11.4336C47.6703 11.293 47.7113 11.1641 47.7465 11.0469C47.7816 10.9297 47.8285 10.8242 47.8871 10.7305C47.9574 10.6133 47.9984 10.5254 48.0102 10.4668C48.057 10.4082 48.098 10.332 48.1332 10.2383C48.1801 10.1328 48.2035 10.0508 48.2035 9.99219C48.2738 9.91016 48.3207 9.81055 48.3441 9.69336C48.3676 9.57617 48.4027 9.46484 48.4496 9.35938C48.473 9.3125 48.4906 9.27148 48.5023 9.23633C48.5258 9.20117 48.5434 9.1543 48.5551 9.0957C48.5668 9.03711 48.5668 8.98438 48.5551 8.9375C48.5551 8.87891 48.5727 8.82031 48.6078 8.76172C48.6547 8.70312 48.7016 8.65625 48.7484 8.62109C48.7953 8.57422 48.8422 8.52148 48.8891 8.46289C48.9477 8.45117 48.9887 8.42188 49.0121 8.375C49.0355 8.32812 49.0707 8.29297 49.1176 8.26953C49.2582 8.22266 49.3285 8.19336 49.3285 8.18164C49.3402 8.16992 49.3578 8.1582 49.3812 8.14648C49.5219 8.07617 49.6098 8.03516 49.6449 8.02344C49.6801 8 49.7211 7.97656 49.768 7.95312C49.8148 7.92969 49.85 7.91797 49.8734 7.91797C49.8969 7.90625 49.932 7.88867 49.9789 7.86523C50.0023 7.8418 50.0492 7.80664 50.1195 7.75977C50.1898 7.71289 50.2367 7.67773 50.2602 7.6543C50.3773 7.70117 50.477 7.77734 50.559 7.88281C50.641 7.97656 50.6645 8.10547 50.6293 8.26953C50.6176 8.32812 50.6 8.38672 50.5766 8.44531C50.5531 8.49219 50.5297 8.53906 50.5062 8.58594C50.4828 8.64453 50.4652 8.70312 50.4535 8.76172C50.4535 8.80859 50.4418 8.85547 50.4184 8.90234C50.3363 9.04297 50.2836 9.1543 50.2602 9.23633C50.2367 9.30664 50.2074 9.37695 50.1723 9.44727C50.1488 9.48242 50.1254 9.51758 50.102 9.55273C50.0902 9.58789 50.0727 9.62891 50.0492 9.67578C50.0141 9.76953 49.9789 9.8457 49.9437 9.9043C49.9203 9.96289 49.8793 10.0215 49.8207 10.0801C49.7855 10.127 49.7504 10.168 49.7152 10.2031C49.6801 10.2383 49.6449 10.2852 49.6098 10.3438C49.5277 10.4492 49.4457 10.5664 49.3637 10.6953C49.2816 10.8242 49.1937 10.9414 49.1 11.0469C49.0414 11.1641 48.977 11.2812 48.9066 11.3984C48.848 11.5156 48.7895 11.6387 48.7309 11.7676ZM69.3184 5.24609C69.3418 5.28125 69.3535 5.31641 69.3535 5.35156C69.3535 5.38672 69.3711 5.41602 69.4062 5.43945C69.3828 5.54492 69.3594 5.65625 69.3359 5.77344C69.3242 5.87891 69.3184 5.98438 69.3184 6.08984C69.3184 6.13672 69.3301 6.17773 69.3535 6.21289C69.3887 6.24805 69.4062 6.2832 69.4062 6.31836C69.3477 6.45898 69.3008 6.54102 69.2656 6.56445C69.2422 6.58789 69.2305 6.61719 69.2305 6.65234C69.1719 6.67578 69.125 6.71094 69.0898 6.75781C69.0664 6.80469 69.0195 6.82812 68.9492 6.82812C68.9258 6.86328 68.8965 6.89258 68.8613 6.91602C68.8379 6.92773 68.8203 6.95703 68.8086 7.00391C68.6211 7.08594 68.4102 7.08008 68.1758 6.98633C68.1172 6.88086 68.0352 6.80469 67.9297 6.75781C67.7773 6.53516 67.7715 6.27148 67.9121 5.9668C67.9355 5.9082 67.959 5.84961 67.9824 5.79102C68.0176 5.7207 68.0469 5.67383 68.0703 5.65039C68.1992 5.55664 68.293 5.49805 68.3516 5.47461C68.3984 5.45117 68.4453 5.42188 68.4922 5.38672C68.5508 5.35156 68.6152 5.32227 68.6855 5.29883C68.709 5.28711 68.7383 5.28125 68.7734 5.28125C68.8203 5.28125 68.8672 5.26953 68.9141 5.24609C68.9609 5.23438 69.002 5.22266 69.0371 5.21094C69.0723 5.19922 69.1074 5.19336 69.1426 5.19336L69.3184 5.24609ZM66.5938 13.0156C66.6992 12.9688 66.8281 12.9512 66.9805 12.9629C67.1328 12.9746 67.2559 12.9512 67.3496 12.8926C67.3965 12.8574 67.4375 12.8223 67.4727 12.7871C67.5078 12.752 67.5488 12.7402 67.5957 12.752C67.7832 12.6816 67.9414 12.6113 68.0703 12.541C68.1992 12.4707 68.3398 12.418 68.4922 12.3828C68.5273 12.3711 68.5684 12.3477 68.6152 12.3125C68.6738 12.2773 68.7148 12.248 68.7383 12.2246C68.9258 12.166 69.0605 12.1074 69.1426 12.0488C69.2246 11.9902 69.3008 11.9316 69.3711 11.873C69.4531 11.8145 69.5293 11.7559 69.5996 11.6973C69.6816 11.627 69.7812 11.5449 69.8984 11.4512C70.0625 11.3574 70.1973 11.2754 70.3027 11.2051C70.4199 11.1348 70.543 11.0469 70.6719 10.9414C70.6953 10.8828 70.7246 10.8418 70.7598 10.8184C70.8066 10.7832 70.8418 10.7422 70.8652 10.6953C71.0762 10.6953 71.1934 10.7773 71.2168 10.9414C71.1582 11.0703 71.0762 11.1758 70.9707 11.2578C70.877 11.3398 70.7891 11.4336 70.707 11.5391C70.6133 11.5977 70.5371 11.6504 70.4785 11.6973C70.4199 11.7441 70.3613 11.8145 70.3027 11.9082C70.291 11.9082 70.2559 11.9375 70.1973 11.9961C70.1387 12.043 70.1035 12.0664 70.0918 12.0664C70.0215 12.1484 69.9688 12.2012 69.9336 12.2246C69.9102 12.248 69.8867 12.2656 69.8633 12.2773C69.8516 12.2773 69.8281 12.2891 69.793 12.3125C69.7695 12.3359 69.7168 12.3828 69.6348 12.4531C69.5527 12.582 69.4473 12.6875 69.3184 12.7695C69.0723 13.0039 68.8027 13.209 68.5098 13.3848C68.2285 13.5488 67.9707 13.7129 67.7363 13.877C67.6895 13.9004 67.6484 13.9355 67.6133 13.9824C67.5781 14.0176 67.5371 14.0527 67.4902 14.0879C67.4316 14.1348 67.3379 14.1816 67.209 14.2285C67.0918 14.2754 66.9863 14.3164 66.8926 14.3516C66.8223 14.3984 66.7578 14.4336 66.6992 14.457C66.4414 14.4688 66.2422 14.4277 66.1016 14.334C65.9492 14.252 65.832 14.1875 65.75 14.1406C65.668 14.0938 65.5977 14.0176 65.5391 13.9121C65.4102 13.8535 65.3281 13.748 65.293 13.5957C65.2695 13.4316 65.2402 13.2734 65.2051 13.1211C65.1934 13.0625 65.1816 12.998 65.1699 12.9277C65.1582 12.8457 65.1582 12.7637 65.1699 12.6816C65.1934 12.5527 65.2109 12.418 65.2227 12.2773C65.2344 12.125 65.2637 11.9961 65.3105 11.8906C65.3691 11.7617 65.3984 11.6328 65.3984 11.5039C65.4102 11.375 65.4453 11.2461 65.5039 11.1172C65.5742 11 65.6035 10.9355 65.5918 10.9238C65.5918 10.9121 65.5977 10.8945 65.6094 10.8711C65.6328 10.8359 65.6562 10.8008 65.6797 10.7656C65.7148 10.7305 65.7441 10.6895 65.7676 10.6426L65.873 10.3789C65.9199 10.2969 65.9727 10.2148 66.0312 10.1328C66.0898 10.0508 66.1367 9.95117 66.1719 9.83398C66.1953 9.76367 66.2246 9.69922 66.2598 9.64062C66.3066 9.58203 66.3535 9.51758 66.4004 9.44727C66.4355 9.37695 66.4648 9.30664 66.4883 9.23633C66.5117 9.1543 66.541 9.07227 66.5762 8.99023C66.6113 8.89648 66.6523 8.80273 66.6992 8.70898C66.7578 8.61523 66.8164 8.52148 66.875 8.42773C66.9219 8.33398 66.9629 8.26367 66.998 8.2168C67.0332 8.16992 67.1035 8.14062 67.209 8.12891C67.2559 8.11719 67.3086 8.12305 67.3672 8.14648C67.4258 8.1582 67.4844 8.15234 67.543 8.12891C67.6953 8.05859 67.8008 8.02344 67.8594 8.02344C67.918 8.02344 67.959 8.00586 67.9824 7.9707C68.1113 7.98242 68.2051 8.02344 68.2637 8.09375C68.3223 8.16406 68.3926 8.23438 68.4746 8.30469C68.4043 8.64453 68.3223 8.9082 68.2285 9.0957C68.1465 9.27148 68.0527 9.45898 67.9473 9.6582C67.8887 9.75195 67.8301 9.85742 67.7715 9.97461C67.7129 10.0918 67.6602 10.1973 67.6133 10.291C67.5547 10.4199 67.4902 10.5371 67.4199 10.6426C67.3613 10.7363 67.3086 10.8477 67.2617 10.9766C67.2383 11.0352 67.209 11.0938 67.1738 11.1523C67.1504 11.1992 67.127 11.252 67.1035 11.3105C67.0801 11.3926 67.0449 11.4688 66.998 11.5391C66.9629 11.5977 66.9277 11.6562 66.8926 11.7148C66.8574 11.7852 66.8223 11.8555 66.7871 11.9258C66.752 11.9961 66.7227 12.0723 66.6992 12.1543C66.6406 12.2949 66.6055 12.3828 66.5938 12.418C66.582 12.4414 66.5703 12.4648 66.5586 12.4883C66.5352 12.6172 66.5 12.7227 66.4531 12.8047C66.4062 12.8867 66.4238 12.9453 66.5059 12.9805L66.5938 13.0156ZM80.7125 4.29688C80.8648 4.32031 80.9938 4.33789 81.0992 4.34961C81.2047 4.36133 81.2984 4.37305 81.3805 4.38477C81.4742 4.38477 81.568 4.38477 81.6617 4.38477C81.7555 4.37305 81.8727 4.35547 82.0133 4.33203C82.2711 4.29688 82.4996 4.26758 82.6988 4.24414C82.9098 4.20898 83.1383 4.17969 83.3844 4.15625C83.4547 4.14453 83.525 4.14453 83.5953 4.15625C83.6773 4.16797 83.7535 4.17383 83.8238 4.17383C83.9762 4.17383 84.1227 4.16797 84.2633 4.15625C84.4156 4.14453 84.5563 4.13281 84.6852 4.12109C84.732 4.10938 84.773 4.09766 84.8082 4.08594C84.8434 4.07422 84.8785 4.07422 84.9137 4.08594C85.0191 4.08594 85.1246 4.08594 85.2301 4.08594C85.3355 4.07422 85.4293 4.10938 85.5113 4.19141C85.5465 4.30859 85.5582 4.37305 85.5465 4.38477C85.5348 4.39648 85.523 4.41406 85.5113 4.4375C85.4996 4.58984 85.4762 4.66602 85.441 4.66602C85.4176 4.66602 85.4059 4.67773 85.4059 4.70117C85.3121 4.72461 85.2301 4.74805 85.1598 4.77148C85.1012 4.7832 85.0543 4.81836 85.0191 4.87695C84.8199 4.92383 84.6324 4.93555 84.4566 4.91211C84.2926 4.87695 84.1227 4.90039 83.9469 4.98242C83.8648 5.01758 83.777 5.06445 83.6832 5.12305C83.6012 5.16992 83.4957 5.16992 83.3668 5.12305C83.2496 5.12305 83.1148 5.12891 82.9625 5.14062C82.8102 5.15234 82.6637 5.16406 82.523 5.17578C82.2535 5.19922 82.0191 5.22266 81.8199 5.24609C81.6324 5.25781 81.4508 5.26953 81.275 5.28125C81.0992 5.28125 80.9176 5.28711 80.7301 5.29883C80.5543 5.31055 80.3375 5.31641 80.0797 5.31641C79.9859 5.39844 79.9215 5.49805 79.8863 5.61523C79.8629 5.73242 79.8043 5.82617 79.7105 5.89648C79.6168 6.11914 79.5406 6.27148 79.482 6.35352C79.4234 6.42383 79.3824 6.51172 79.359 6.61719C79.1949 6.82812 79.0426 7.05078 78.902 7.28516C78.773 7.50781 78.6207 7.71875 78.4449 7.91797C78.4215 8.04688 78.3746 8.16406 78.3043 8.26953C78.2457 8.36328 78.2047 8.49219 78.1813 8.65625C78.0523 8.83203 77.9586 9.02539 77.9 9.23633C77.8414 9.44727 77.7652 9.66992 77.6715 9.9043C77.648 9.99805 77.6188 10.0918 77.5836 10.1855C77.5602 10.2676 77.5309 10.3555 77.4957 10.4492C77.4488 10.5664 77.3902 10.6777 77.3199 10.7832C77.2613 10.877 77.2027 10.9824 77.1441 11.0996C77.1207 11.123 77.109 11.1582 77.109 11.2051C77.109 11.2402 77.1031 11.2695 77.0914 11.293C77.0563 11.375 77.0211 11.4512 76.9859 11.5215C76.9508 11.5801 76.9215 11.6387 76.898 11.6973C76.8746 11.7559 76.857 11.8203 76.8453 11.8906C76.8453 11.9492 76.8336 12.0078 76.8102 12.0664C76.7984 12.1016 76.7867 12.1367 76.775 12.1719C76.7633 12.1953 76.7516 12.2246 76.7398 12.2598C76.7047 12.4238 76.7047 12.5352 76.7398 12.5938C76.775 12.6523 76.8043 12.7109 76.8277 12.7695C76.8512 12.8398 76.8746 12.9043 76.898 12.9629C76.9215 13.0098 76.9391 13.0625 76.9508 13.1211C77.0094 13.1445 77.0621 13.168 77.109 13.1914C77.1676 13.2148 77.2262 13.2266 77.2848 13.2266C77.3551 13.2383 77.4313 13.209 77.5133 13.1387C77.5953 13.0566 77.6656 13.0098 77.7242 12.998C77.8063 12.9746 77.8824 12.9629 77.9527 12.9629C78.0348 12.9629 78.1051 12.9453 78.1637 12.9102C78.234 12.8516 78.2926 12.793 78.3395 12.7344C78.3863 12.6758 78.4508 12.6348 78.5328 12.6113C78.7203 12.5645 78.8199 12.5293 78.8316 12.5059C78.8434 12.4707 78.8844 12.4238 78.9547 12.3652C79.0367 12.3066 79.107 12.2539 79.1656 12.207C79.2359 12.1484 79.318 12.0898 79.4117 12.0312C79.5289 11.9727 79.5934 11.9375 79.6051 11.9258C79.6285 11.9141 79.6813 11.873 79.7633 11.8027C79.8805 11.7441 79.9801 11.6797 80.0621 11.6094C80.1441 11.5391 80.2379 11.4746 80.3434 11.416C80.4605 11.3691 80.5309 11.3398 80.5543 11.3281C80.5777 11.3047 80.5895 11.2871 80.5895 11.2754C80.6012 11.2637 80.6129 11.2461 80.6246 11.2227C80.648 11.1992 80.7066 11.1582 80.8004 11.0996C80.8473 11.0059 80.9 10.9297 80.9586 10.8711C81.0172 10.8125 81.0875 10.7363 81.1695 10.6426C81.2398 10.5605 81.3102 10.4902 81.3805 10.4316C81.4625 10.373 81.5328 10.3145 81.5914 10.2559C81.6266 10.2324 81.6559 10.209 81.6793 10.1855C81.7027 10.1504 81.7438 10.127 81.8023 10.1152C81.8727 10.0566 81.9254 10.0098 81.9605 9.97461C82.0074 9.92773 82.0777 9.86328 82.1715 9.78125C82.1949 9.75781 82.2242 9.72852 82.2594 9.69336C82.2945 9.6582 82.3238 9.63477 82.3473 9.62305C82.3941 9.62305 82.4293 9.64062 82.4527 9.67578C82.4879 9.71094 82.5289 9.72852 82.5758 9.72852C82.5641 9.88086 82.5582 9.98047 82.5582 10.0273C82.5582 10.0625 82.5465 10.1035 82.523 10.1504C82.4527 10.2559 82.3707 10.3145 82.277 10.3262C82.1949 10.3379 82.1305 10.4023 82.0836 10.5195C82.0484 10.4961 82.0016 10.4902 81.943 10.502C81.8961 10.5137 81.8609 10.5312 81.8375 10.5547C81.8609 10.6016 81.8727 10.6426 81.8727 10.6777C81.8727 10.7129 81.8785 10.7539 81.8902 10.8008C81.6793 11.0117 81.5387 11.1816 81.4684 11.3105C81.3277 11.4629 81.2516 11.5508 81.2398 11.5742C81.2281 11.5859 81.2223 11.5918 81.2223 11.5918C81.2223 11.5918 81.2164 11.5977 81.2047 11.6094C81.193 11.6211 81.152 11.6621 81.0816 11.7324C80.9176 11.8613 80.7945 11.9844 80.7125 12.1016C80.6305 12.2188 80.5074 12.3242 80.3434 12.418C80.2145 12.5117 80.1266 12.582 80.0797 12.6289C80.0328 12.6758 79.9625 12.7402 79.8688 12.8223C79.8219 12.8691 79.775 12.9219 79.7281 12.9805C79.693 13.0273 79.6461 13.0742 79.5875 13.1211C79.5055 13.1797 79.4234 13.2324 79.3414 13.2793C79.2711 13.3262 79.2066 13.3848 79.148 13.4551C78.9723 13.5371 78.8434 13.6309 78.7613 13.7363C78.691 13.8418 78.5797 13.9414 78.4273 14.0352C78.3219 14.1055 78.1754 14.1934 77.9879 14.2988C77.8121 14.4043 77.6598 14.4805 77.5309 14.5273C77.4957 14.5391 77.4605 14.5508 77.4254 14.5625C77.402 14.5742 77.3727 14.5859 77.3375 14.5977C77.2438 14.5391 77.15 14.4805 77.0563 14.4219C76.9742 14.3633 76.9039 14.2812 76.8453 14.1758C76.7398 14.0938 76.652 14.0352 76.5816 14C76.523 13.9648 76.4645 13.918 76.4059 13.8594C76.2887 13.6602 76.1539 13.4609 76.0016 13.2617C75.8609 13.0625 75.7496 12.8398 75.6676 12.5938C75.6441 12.5469 75.6266 12.5 75.6148 12.4531C75.6148 12.3945 75.609 12.3359 75.5973 12.2773C75.5738 12.1836 75.5504 12.1016 75.527 12.0312C75.5035 11.9609 75.4977 11.873 75.5094 11.7676C75.5094 11.6973 75.5211 11.6211 75.5445 11.5391C75.568 11.457 75.5914 11.3691 75.6148 11.2754C75.6617 11.123 75.7145 10.9766 75.773 10.8359C75.8434 10.6953 75.8961 10.543 75.9313 10.3789C75.9664 10.25 76.0016 10.1328 76.0367 10.0273C76.0719 9.92188 76.1129 9.80469 76.1598 9.67578C76.1832 9.61719 76.1949 9.56445 76.1949 9.51758C76.2066 9.45898 76.2418 9.41797 76.3004 9.39453C76.3473 9.16016 76.4234 8.9375 76.5289 8.72656C76.6344 8.50391 76.7398 8.29297 76.8453 8.09375C76.9742 7.84766 77.0914 7.5957 77.1969 7.33789C77.3141 7.08008 77.4371 6.82812 77.566 6.58203C77.5777 6.44141 77.6246 6.32422 77.7066 6.23047C77.7184 6.10156 77.7652 5.97852 77.8473 5.86133C77.9293 5.73242 77.9879 5.60352 78.023 5.47461C77.8941 5.43945 77.7477 5.43945 77.5836 5.47461C77.4313 5.49805 77.2965 5.52148 77.1793 5.54492C76.9684 5.55664 76.7457 5.55664 76.5113 5.54492C76.4293 5.5332 76.3473 5.52148 76.2652 5.50977C76.1949 5.48633 76.1246 5.47461 76.0543 5.47461C75.9488 5.48633 75.8668 5.48047 75.8082 5.45703C75.7613 5.42188 75.7086 5.41602 75.65 5.43945C75.4977 5.31055 75.3863 5.22266 75.316 5.17578C75.2457 5.12891 75.1813 5.08789 75.1227 5.05273C75.0523 5.00586 74.9938 4.95898 74.9469 4.91211C74.8883 4.85352 74.8414 4.77148 74.8063 4.66602C74.8063 4.63086 74.8238 4.60156 74.859 4.57812C74.8941 4.55469 74.9234 4.53125 74.9469 4.50781C75.0406 4.48437 75.1461 4.47852 75.2633 4.49023C75.3805 4.49023 75.4742 4.4668 75.5445 4.41992C75.732 4.44336 75.902 4.43164 76.0543 4.38477C76.2184 4.33789 76.3883 4.32031 76.5641 4.33203C76.5992 4.33203 76.6344 4.33789 76.6695 4.34961C76.7047 4.36133 76.7398 4.36719 76.775 4.36719C76.8336 4.37891 76.8805 4.37891 76.9156 4.36719C76.9625 4.35547 77.0152 4.34375 77.0738 4.33203C77.1441 4.32031 77.2203 4.32031 77.3023 4.33203C77.3844 4.34375 77.4664 4.34375 77.5484 4.33203C77.7008 4.32031 77.8824 4.33789 78.0934 4.38477C78.316 4.41992 78.5094 4.4082 78.6734 4.34961C78.732 4.18555 78.7965 4.02148 78.8668 3.85742C78.9488 3.68164 79.0133 3.51172 79.0602 3.34766C79.107 3.27734 79.1539 3.20117 79.2008 3.11914C79.2477 3.02539 79.2828 2.9375 79.3063 2.85547C79.3766 2.73828 79.4293 2.64453 79.4645 2.57422C79.5113 2.50391 79.5641 2.43359 79.6227 2.36328C79.7047 2.19922 79.7633 2.04102 79.7984 1.88867C79.8453 1.72461 79.9039 1.54883 79.9742 1.36133C80.1266 1.19727 80.2789 0.998047 80.4313 0.763672C80.5133 0.775391 80.5777 0.751953 80.6246 0.693359C80.6832 0.634766 80.7652 0.640625 80.8707 0.710938C80.8707 0.746094 80.8824 0.78125 80.9059 0.816406C80.941 0.839844 80.9469 0.880859 80.9234 0.939453C80.982 0.998047 81.0289 1.05078 81.0641 1.09766C81.0992 1.14453 81.1285 1.19727 81.152 1.25586C81.1754 1.34961 81.1637 1.46094 81.1168 1.58984C81.0816 1.70703 81.0934 1.81836 81.152 1.92383C81.1754 1.98242 81.1813 2.04102 81.1695 2.09961C81.1578 2.14648 81.1637 2.19336 81.1871 2.24023C81.2105 2.29883 81.2398 2.35742 81.275 2.41602C81.3219 2.47461 81.3453 2.55078 81.3453 2.64453C81.3453 2.67969 81.3336 2.72656 81.3102 2.78516C81.2984 2.83203 81.2809 2.88477 81.2574 2.94336C81.2105 3.11914 81.1754 3.24219 81.152 3.3125C81.1285 3.38281 81.1051 3.45898 81.0816 3.54102C80.9996 3.63477 80.9586 3.69922 80.9586 3.73438C80.9586 3.75781 80.9527 3.78125 80.941 3.80469C80.9059 3.875 80.8648 3.96289 80.818 4.06836C80.7828 4.16211 80.7477 4.23828 80.7125 4.29688Z" fill="black"/>
</svg>
